<svg width="300" height="278" viewBox="0 0 300 278" fill="none" xmlns="http://www.w3.org/2000/svg">
<path d="M9.26528 162.098L117.23 270.062C118.287 271.12 119.543 271.959 120.925 272.532C122.308 273.104 123.789 273.399 125.285 273.399C126.781 273.399 128.263 273.104 129.645 272.532C131.027 271.959 132.283 271.12 133.341 270.062L135.724 267.679L192.673 210.73L226.04 177.363L240.34 163.063C246.691 156.724 253.806 150.861 258.87 143.353C264.626 134.809 264.673 126.229 265.472 116.362L267.188 94.1736L271.156 44.6125L272.348 30.1577C273.539 15.5241 262.338 4.45363 247.692 5.75254L168.519 12.8072C160.332 13.5341 151.835 13.2838 143.923 15.6552C134.711 18.396 129.623 24.9382 123.021 31.4804L92.0379 62.4636L23.7916 130.65L11.2792 143.163L8.89587 145.546C7.83798 146.604 6.99881 147.86 6.42629 149.242C5.85376 150.624 5.55908 152.106 5.55908 153.602C5.55908 155.098 5.85376 156.579 6.42629 157.961C6.99881 159.343 7.83798 160.599 8.89587 161.657L9.26528 162.098Z" fill="#2496D8"/>
<path d="M252.387 52.6562C252.387 53.0733 252.387 53.4665 252.387 53.8478C252.16 59.3291 250.137 64.5837 246.631 68.8032C244.422 71.5055 241.639 73.683 238.485 75.1784C235.331 76.6737 231.884 77.4494 228.393 77.4494C224.902 77.4494 221.455 76.6737 218.301 75.1784C215.147 73.683 212.364 71.5055 210.155 68.8032C206.641 64.5948 204.606 59.3489 204.363 53.8717C204.363 53.4784 204.363 53.0733 204.363 52.68C204.363 52.2868 204.363 51.6671 204.363 51.1666C205.138 38.1895 215.577 27.9174 228.375 27.9174C241.174 27.9174 251.613 38.1895 252.387 51.1666C252.387 51.6592 252.387 52.1557 252.387 52.6562Z" fill="white"/>
<path d="M228.34 79.1706C212.455 79.1706 199.525 65.9193 199.525 49.6175C199.525 33.3156 212.455 20.0643 228.34 20.0643C244.224 20.0643 257.166 33.3156 257.166 49.6175C257.166 65.9193 244.248 79.1706 228.34 79.1706ZM228.34 29.5976C217.71 29.5976 209.059 38.5827 209.059 49.6175C209.059 60.6522 217.71 69.6373 228.34 69.6373C238.969 69.6373 247.633 60.6522 247.633 49.6175C247.633 38.5827 238.969 29.6095 228.34 29.6095V29.5976Z" fill="black"/>
<path opacity="0.5" d="M147.748 12.4735L161.035 18.2769L17.011 162.086L7.46582 152.541L147.748 12.4735Z" fill="#F7EAD0"/>
<path d="M156.519 43.5162C155.892 43.5167 155.272 43.3938 154.694 43.1546C154.115 42.9153 153.589 42.5645 153.146 42.1219L149.357 38.3325C148.555 37.4248 148.129 36.2462 148.165 35.0359C148.201 33.8256 148.696 32.6743 149.55 31.8159C150.404 30.9574 151.553 30.4561 152.763 30.4137C153.973 30.3713 155.154 30.7911 156.066 31.5877L159.855 35.3772C160.523 36.0438 160.977 36.8935 161.161 37.8186C161.346 38.7437 161.251 39.7027 160.89 40.5742C160.529 41.4456 159.918 42.1903 159.133 42.7141C158.348 43.2378 157.426 43.5169 156.483 43.5162H156.519Z" fill="black"/>
<path d="M224.169 111.167C223.543 111.167 222.922 111.044 222.344 110.805C221.765 110.566 221.239 110.215 220.796 109.772L212.991 101.967C212.548 101.524 212.197 100.998 211.957 100.42C211.717 99.8411 211.594 99.2209 211.594 98.5946C211.594 97.9683 211.717 97.3481 211.957 96.7695C212.197 96.1908 212.548 95.6651 212.991 95.2222C213.434 94.7793 213.96 94.428 214.538 94.1883C215.117 93.9487 215.737 93.8253 216.363 93.8253C216.99 93.8253 217.61 93.9487 218.188 94.1883C218.767 94.428 219.293 94.7793 219.736 95.2222L227.565 103.028C228.232 103.694 228.687 104.544 228.871 105.469C229.055 106.394 228.961 107.353 228.6 108.225C228.239 109.096 227.627 109.841 226.843 110.364C226.058 110.888 225.136 111.167 224.193 111.167H224.169ZM201.623 88.6204C200.996 88.6209 200.376 88.498 199.798 88.2588C199.219 88.0196 198.693 87.6687 198.25 87.2262L190.445 79.4208C189.947 78.9917 189.544 78.4644 189.26 77.872C188.976 77.2797 188.818 76.635 188.795 75.9785C188.772 75.322 188.885 74.6678 189.126 74.057C189.368 73.4462 189.734 72.892 190.2 72.4292C190.666 71.9663 191.223 71.6048 191.835 71.3673C192.448 71.1299 193.103 71.0215 193.759 71.0492C194.415 71.0769 195.059 71.2399 195.649 71.528C196.24 71.8162 196.764 72.2233 197.19 72.7237L204.995 80.529C205.662 81.1957 206.117 82.0453 206.301 82.9705C206.485 83.8956 206.391 84.8546 206.03 85.7261C205.669 86.5975 205.057 87.3422 204.273 87.8659C203.488 88.3897 202.566 88.6688 201.623 88.6681V88.6204ZM179.076 66.0623C178.45 66.0628 177.83 65.9399 177.251 65.7007C176.673 65.4615 176.147 65.1106 175.704 64.6681L167.899 56.8627C166.999 55.9699 166.492 54.7564 166.487 53.4893C166.483 52.2222 166.982 51.0052 167.875 50.106C168.768 49.2069 169.981 48.6992 171.248 48.6947C172.515 48.6903 173.732 49.1893 174.631 50.0822L182.437 57.8875C183.104 58.5542 183.559 59.4038 183.743 60.329C183.927 61.2541 183.833 62.2131 183.472 63.0845C183.111 63.956 182.499 64.7007 181.715 65.2244C180.93 65.7481 180.008 66.0273 179.064 66.0266L179.076 66.0623Z" fill="black"/>
<path d="M242.711 129.697C242.085 129.697 241.465 129.574 240.886 129.335C240.308 129.096 239.782 128.745 239.339 128.303L235.549 124.513C234.655 123.619 234.152 122.406 234.152 121.141C234.152 119.876 234.655 118.663 235.549 117.768C236.444 116.874 237.657 116.371 238.922 116.371C240.187 116.371 241.4 116.874 242.294 117.768L246.083 121.558C246.751 122.224 247.205 123.074 247.39 123.999C247.574 124.924 247.48 125.883 247.118 126.755C246.757 127.626 246.146 128.371 245.361 128.895C244.577 129.418 243.654 129.698 242.711 129.697Z" fill="black"/>
<path d="M254.461 66.5271C240.673 66.5271 227.196 60.4496 214.91 54.9084C212.717 53.9193 210.548 52.9422 208.439 52.0246C207.296 51.5108 206.402 50.5678 205.949 49.3996C205.496 48.2314 205.522 46.9319 206.02 45.7822C206.518 44.6326 207.449 43.7253 208.61 43.2566C209.772 42.7879 211.072 42.7955 212.228 43.2778C214.385 44.2073 216.59 45.2083 218.83 46.2212C234.655 53.3712 251.005 60.7475 266.282 54.8488L293.464 44.255C294.052 44.0006 294.685 43.8674 295.326 43.8634C295.967 43.8594 296.602 43.9847 297.193 44.2317C297.785 44.4787 298.32 44.8423 298.767 45.301C299.215 45.7596 299.565 46.3037 299.798 46.9009C300.03 47.498 300.14 48.1359 300.12 48.7764C300.101 49.4169 299.952 50.0469 299.683 50.6286C299.415 51.2104 299.031 51.732 298.557 52.1622C298.082 52.5925 297.525 52.9226 296.92 53.1328L269.726 63.7267C264.856 65.6018 259.679 66.5515 254.461 66.5271Z" fill="black"/>
<path d="M89.4876 125.979C119.499 125.979 143.827 101.608 143.827 71.544C143.827 41.4804 119.499 17.109 89.4876 17.109C59.4766 17.109 35.1479 41.4804 35.1479 71.544C35.1479 101.608 59.4766 125.979 89.4876 125.979Z" fill="#908152"/>
<path d="M92.6215 177.22C91.6782 177.221 90.7559 176.942 89.9713 176.418C89.1867 175.894 88.5752 175.15 88.2141 174.278C87.853 173.407 87.7586 172.448 87.9429 171.523C88.1271 170.598 88.5817 169.748 89.2491 169.081L127.037 131.27C127.474 130.808 128 130.439 128.583 130.184C129.166 129.929 129.794 129.793 130.43 129.784C131.066 129.775 131.698 129.894 132.287 130.133C132.877 130.372 133.412 130.727 133.863 131.177C134.313 131.626 134.669 132.161 134.909 132.75C135.149 133.339 135.269 133.971 135.261 134.607C135.254 135.243 135.119 135.871 134.865 136.455C134.611 137.038 134.242 137.564 133.781 138.003L95.9938 175.826C95.5508 176.269 95.025 176.619 94.4464 176.859C93.8677 177.098 93.2476 177.221 92.6215 177.22Z" fill="black"/>
<path d="M108.542 193.081C107.599 193.082 106.677 192.803 105.892 192.279C105.108 191.755 104.496 191.011 104.135 190.139C103.774 189.268 103.68 188.309 103.864 187.384C104.048 186.458 104.503 185.609 105.17 184.942L168.054 122.011C168.492 121.549 169.017 121.18 169.6 120.925C170.183 120.669 170.811 120.533 171.447 120.525C172.083 120.516 172.715 120.635 173.304 120.874C173.894 121.113 174.43 121.468 174.88 121.917C175.33 122.367 175.686 122.902 175.926 123.491C176.166 124.08 176.286 124.711 176.279 125.348C176.271 125.984 176.136 126.612 175.882 127.195C175.628 127.778 175.259 128.305 174.799 128.744L111.915 191.723C111.014 192.603 109.802 193.092 108.542 193.081Z" fill="black"/>
<path d="M124.451 209.026C123.508 209.026 122.585 208.747 121.801 208.224C121.016 207.7 120.405 206.955 120.044 206.084C119.683 205.212 119.588 204.253 119.772 203.328C119.957 202.403 120.411 201.553 121.079 200.887L183.962 137.955C184.4 137.494 184.926 137.124 185.509 136.869C186.092 136.614 186.72 136.478 187.356 136.469C187.992 136.46 188.623 136.579 189.213 136.818C189.803 137.057 190.338 137.412 190.789 137.862C191.239 138.311 191.595 138.846 191.835 139.435C192.075 140.025 192.195 140.656 192.187 141.292C192.18 141.928 192.045 142.556 191.791 143.14C191.537 143.723 191.168 144.249 190.707 144.688L127.823 207.619C127.381 208.064 126.856 208.417 126.277 208.659C125.699 208.9 125.078 209.025 124.451 209.026Z" fill="black"/>
<path d="M259.144 124.203C264.78 129.852 266.425 137.312 262.814 140.946L128.943 274.412L118.743 264.176L259.144 124.203Z" fill="#E4EAF6"/>
<g opacity="0.7">
<path d="M81.8254 214.698C80.9009 214.697 80.0125 214.339 79.3468 213.697L68.884 203.627C68.5297 203.306 68.2434 202.917 68.0423 202.483C67.8411 202.048 67.7291 201.578 67.713 201.1C67.6968 200.622 67.7768 200.146 67.9482 199.699C68.1196 199.252 68.3789 198.844 68.7108 198.5C69.0427 198.155 69.4403 197.881 69.8802 197.693C70.3201 197.504 70.7933 197.406 71.2718 197.405C71.7502 197.403 72.2242 197.497 72.6655 197.681C73.1069 197.866 73.5068 198.137 73.8413 198.479L84.3041 208.573C84.8171 209.067 85.1706 209.704 85.3194 210.4C85.4681 211.097 85.4053 211.823 85.1389 212.483C84.8725 213.144 84.4148 213.71 83.8244 214.109C83.234 214.508 82.5379 214.721 81.8254 214.722V214.698Z" fill="white"/>
<path d="M96.2682 228.593C95.3437 228.592 94.4553 228.233 93.7896 227.592L88.1411 222.146C87.491 221.481 87.1253 220.59 87.1216 219.66C87.1179 218.73 87.4766 217.836 88.1214 217.166C88.7663 216.496 89.6467 216.104 90.5758 216.073C91.505 216.041 92.4098 216.373 93.0984 216.998L98.7588 222.444C99.2718 222.938 99.6253 223.575 99.7741 224.271C99.9228 224.968 99.86 225.693 99.5936 226.354C99.3272 227.015 98.8695 227.581 98.2791 227.98C97.6887 228.379 96.9926 228.592 96.2802 228.593H96.2682Z" fill="white"/>
</g>
<path opacity="0.7" d="M62.9623 192.897C64.7192 191.072 64.6635 188.167 62.8377 186.41C61.012 184.653 58.1076 184.709 56.3507 186.535C54.5937 188.361 54.6495 191.265 56.4752 193.022C58.301 194.779 61.2053 194.723 62.9623 192.897Z" fill="white"/>
<path d="M124.475 277.343C122.349 277.342 120.245 276.921 118.284 276.103C116.323 275.285 114.543 274.086 113.047 272.577L4.72492 164.255C1.69918 161.221 0 157.112 0 152.827C0 148.542 1.69918 144.433 4.72492 141.399L118.826 27.262C119.815 26.2729 120.769 25.2957 121.698 24.3186C127.132 18.7058 132.745 12.9025 141.73 10.2332C148.046 8.35033 154.457 7.99284 160.665 7.64725C162.941 7.51617 165.098 7.39701 167.255 7.20634L246.441 0.163641C250.449 -0.277384 254.505 0.17573 258.317 1.49036C262.129 2.805 265.602 4.94845 268.487 7.76642C271.324 10.6208 273.494 14.0687 274.84 17.8622C276.185 21.6557 276.673 25.7003 276.268 29.7049L269.357 115.993C269.273 116.994 269.202 117.971 269.13 118.948C268.463 128.005 267.843 136.549 261.98 145.272C257.905 151.314 252.709 156.259 247.68 161.038C246.083 162.563 244.427 164.136 242.914 165.697L233.476 175.135L208.177 200.434C207.282 201.328 206.069 201.831 204.804 201.831C203.539 201.831 202.326 201.328 201.432 200.434C200.538 199.539 200.035 198.326 200.035 197.061C200.035 195.796 200.538 194.583 201.432 193.689L226.731 168.39L236.169 158.952C237.813 157.308 239.505 155.699 241.15 154.186C246.012 149.562 250.612 145.188 254.115 140.005C258.584 133.379 259.061 126.73 259.68 118.317C259.752 117.327 259.823 116.315 259.907 115.302L266.818 29.0137C267.1 26.3927 266.798 23.7418 265.935 21.251C265.072 18.7602 263.668 16.4912 261.825 14.6065C259.921 12.7731 257.633 11.385 255.127 10.5422C252.622 9.69943 249.96 9.42294 247.335 9.73266L168.101 16.7158C165.789 16.9184 163.454 17.0494 161.19 17.1805C155.231 17.5142 149.69 17.824 144.447 19.3851C137.857 21.3513 133.543 25.8081 128.55 30.968C127.573 31.9809 126.584 32.9938 125.559 34.0187L11.422 148.144C10.1835 149.388 9.48816 151.072 9.48816 152.827C9.48816 154.582 10.1835 156.266 11.422 157.51L11.8272 157.915L119.791 265.88C121.036 267.122 122.722 267.819 124.481 267.819C126.239 267.819 127.925 267.122 129.17 265.88L131.553 263.496C137.881 257.169 142.767 252.593 147.498 248.16C152.228 243.727 157.031 239.246 163.215 233.038C164.11 232.143 165.323 231.641 166.588 231.641C167.853 231.641 169.066 232.143 169.96 233.038C170.855 233.932 171.357 235.145 171.357 236.41C171.357 237.675 170.855 238.888 169.96 239.782C163.633 246.11 158.747 250.686 154.016 255.119C149.285 259.552 144.483 264.033 138.298 270.241L135.915 272.624C134.413 274.126 132.629 275.316 130.666 276.126C128.702 276.936 126.598 277.35 124.475 277.343Z" fill="black"/>
<path d="M80.7406 116.958C110.804 116.958 135.176 92.5867 135.176 62.5231C135.176 32.4595 110.804 8.08813 80.7406 8.08813C50.677 8.08813 26.3057 32.4595 26.3057 62.5231C26.3057 92.5867 50.677 116.958 80.7406 116.958Z" fill="white"/>
<path opacity="0.5" d="M134.913 60.9501C134.91 68.8379 133.193 76.6308 129.881 83.7893C126.568 90.9478 121.74 97.301 115.729 102.409C109.719 107.517 102.67 111.258 95.0711 113.372C87.4721 115.487 79.5043 115.924 71.7193 114.655C63.9344 113.386 56.5182 110.44 49.9843 106.021C43.4504 101.603 37.9548 95.8169 33.878 89.0644C29.8012 82.3119 27.2406 74.754 26.3734 66.9141C25.5063 59.0742 26.3533 51.1394 28.8558 43.6592C33.3245 68.8032 56.4665 91.4447 80.4784 91.4447C104.49 91.4447 126.405 73.2481 132.101 43.6592C133.971 49.2319 134.921 55.072 134.913 60.9501Z" fill="#D9F0FF"/>
<path d="M134.437 60.116C134.543 67.3315 133.215 74.4962 130.527 81.1934C127.84 87.8906 123.848 93.9866 118.783 99.1269C113.718 104.267 107.682 108.349 101.025 111.135C94.3682 113.922 87.224 115.356 80.0077 115.356C72.7914 115.356 65.6472 113.922 58.9905 111.135C52.3338 108.349 46.2975 104.267 41.2327 99.1269C36.1679 93.9866 32.1757 87.8906 29.4883 81.1934C26.8009 74.4962 25.4719 67.3315 25.5787 60.116C25.5782 57.7251 25.7335 55.3368 26.0435 52.9661C27.7656 66.0609 34.19 78.083 44.1195 86.7921C54.0489 95.5011 66.806 100.303 80.0137 100.303C93.2213 100.303 105.978 95.5011 115.908 86.7921C125.837 78.083 132.262 66.0609 133.984 52.9661C134.29 55.337 134.441 57.7254 134.437 60.116Z" fill="#D9F0FF"/>
<path d="M57.4199 56.1954V47.4605C57.4199 44.5926 58.2144 42.4873 59.8032 41.1447C61.6751 39.7269 63.9886 39.0176 66.3335 39.1427C68.6835 39.0208 71.0022 39.7249 72.8876 41.1328C74.5321 42.4675 75.3544 44.5688 75.3544 47.4367V56.1715C75.3544 59.0474 74.5361 61.1527 72.8996 62.4873C71.0189 63.8968 68.7048 64.605 66.3574 64.4893C64.0099 64.6207 61.6918 63.9156 59.8152 62.4992C58.2183 61.1646 57.4199 59.0633 57.4199 56.1954ZM63.3782 56.1954C63.3782 58.1656 64.3951 59.1507 66.4289 59.1507C68.4626 59.1507 69.4954 58.1656 69.5272 56.1954V47.4367C69.5272 45.4665 68.4904 44.4814 66.4169 44.4814C66.0109 44.4193 65.5961 44.4522 65.2049 44.5774C64.8137 44.7026 64.4569 44.9168 64.1625 45.2032C63.8681 45.4896 63.644 45.8403 63.5079 46.2278C63.3718 46.6153 63.3274 47.0291 63.3782 47.4367V56.1954ZM66.5957 83.6869C66.6006 83.2719 66.7026 82.8638 66.8936 82.4953L88.0575 38.1656C88.2702 37.6787 88.6283 37.2696 89.0828 36.9944C89.5372 36.7191 90.0657 36.5913 90.5957 36.6283C91.508 36.6313 92.3901 36.9562 93.0863 37.5459C93.4619 37.818 93.7664 38.1768 93.9739 38.5917C94.1813 39.0066 94.2856 39.4654 94.2779 39.9292C94.2925 40.3396 94.2108 40.7477 94.0396 41.1209L72.7685 85.4029C72.5272 85.9063 72.1373 86.3235 71.6515 86.5984C71.1657 86.8733 70.6072 86.9926 70.0515 86.9402C69.5925 86.9522 69.136 86.8683 68.7113 86.6939C68.2866 86.5195 67.9029 86.2584 67.5848 85.9272C67.279 85.6385 67.0341 85.2916 66.8642 84.9069C66.6944 84.5222 66.6031 84.1074 66.5957 83.6869ZM85.2571 75.9769V67.242C85.2571 64.3741 86.0515 62.2689 87.6404 60.9263C89.5123 59.5084 91.8257 58.7991 94.1707 58.9243C96.5207 58.8024 98.8393 59.5064 100.725 60.9143C102.369 62.249 103.192 64.3503 103.192 67.2182V75.9531C103.192 78.8289 102.373 80.9342 100.737 82.2689C98.8528 83.681 96.534 84.3893 94.1826 84.2708C91.8442 84.3869 89.54 83.6736 87.6761 82.2569C86.0634 80.9461 85.2571 78.8528 85.2571 75.9769ZM91.2154 75.9769C91.1678 76.3801 91.2133 76.7889 91.3484 77.1718C91.4834 77.5547 91.7044 77.9015 91.9943 78.1857C92.2843 78.4699 92.6355 78.6839 93.021 78.8112C93.4066 78.9386 93.8161 78.9759 94.2183 78.9203C96.2918 78.9203 97.3246 77.9352 97.3166 75.965V67.2182C97.3166 65.248 96.2799 64.2629 94.2064 64.2629C92.1329 64.2629 91.12 65.248 91.1677 67.2182L91.2154 75.9769Z" fill="black"/>
<path d="M80.2044 119.58C68.494 119.584 57.0451 116.116 47.3061 109.613C37.567 103.11 29.9753 93.8653 25.4912 83.0473C21.0071 72.2294 19.832 60.3246 22.1145 48.8387C24.3971 37.3528 30.0348 26.8019 38.3146 18.5205C46.5943 10.2391 57.1441 4.59927 68.6295 2.31437C80.1149 0.0294805 92.02 1.20218 102.839 5.68413C113.658 10.1661 122.904 17.7559 129.409 27.4937C135.914 37.2314 139.385 48.6796 139.382 60.39C139.363 76.0803 133.123 91.1226 122.029 102.218C110.936 113.314 95.8946 119.558 80.2044 119.58ZM80.2044 10.7575C70.3784 10.7528 60.7718 13.6626 52.6 19.119C44.4282 24.5753 38.0584 32.3329 34.2965 41.4103C30.5346 50.4877 29.5497 60.4769 31.4664 70.1141C33.3831 79.7514 38.1152 88.6036 45.064 95.5508C52.0129 102.498 60.8663 107.228 70.504 109.142C80.1417 111.057 90.1307 110.069 99.2071 106.305C108.284 102.541 116.04 96.1696 121.494 87.9965C126.948 79.8234 129.856 70.216 129.849 60.39C129.827 47.2314 124.589 34.6181 115.283 25.3147C105.978 16.0112 93.3631 10.7764 80.2044 10.7575Z" fill="black"/>
<path d="M178.516 229.439C177.58 229.437 176.664 229.16 175.884 228.641C175.105 228.122 174.495 227.386 174.131 226.522C173.768 225.659 173.666 224.708 173.84 223.788C174.014 222.867 174.455 222.019 175.108 221.347L181.186 215.115C181.619 214.651 182.14 214.277 182.719 214.017C183.298 213.757 183.923 213.615 184.557 213.6C185.192 213.584 185.823 213.696 186.414 213.928C187.005 214.16 187.543 214.507 187.998 214.95C188.453 215.393 188.815 215.922 189.062 216.507C189.31 217.091 189.438 217.719 189.439 218.354C189.441 218.989 189.315 219.617 189.071 220.203C188.826 220.789 188.467 221.319 188.014 221.764L181.936 227.997C181.492 228.454 180.96 228.817 180.373 229.064C179.785 229.312 179.154 229.439 178.516 229.439Z" fill="black"/>
<path d="M195.152 212.374C194.214 212.375 193.297 212.099 192.515 211.582C191.734 211.064 191.122 210.327 190.757 209.463C190.392 208.6 190.29 207.648 190.463 206.726C190.636 205.805 191.078 204.955 191.732 204.283L191.982 204.021C192.871 203.147 194.066 202.656 195.312 202.654C196.558 202.651 197.756 203.136 198.649 204.005C199.542 204.875 200.058 206.059 200.089 207.305C200.119 208.551 199.66 209.759 198.81 210.67L198.56 210.932C198.117 211.388 197.587 211.75 197.002 211.997C196.416 212.245 195.787 212.373 195.152 212.374Z" fill="black"/>
</svg>
