<svg width="80" height="80" viewBox="0 0 80 80" fill="none" xmlns="http://www.w3.org/2000/svg">
<path d="M20 32.95C18.6907 33.3321 17.4275 33.8575 16.2333 34.5167L16.6667 42.0667L9.06667 41.6667C8.40755 42.8608 7.88215 44.124 7.5 45.4333L13.1167 50.5167L7.5 55.5167C7.87614 56.8281 8.40182 58.092 9.06667 59.2833L16.6667 58.9833L16.2833 66.55C17.478 67.2038 18.7412 67.7237 20.05 68.1L25.1333 62.4833L30.1333 68.1C31.4443 67.7297 32.7081 67.2096 33.9 66.55L33.5167 58.9833L41.0833 59.3667C41.743 58.1748 42.2631 56.9109 42.6333 55.6L37.0167 50.6L42.6333 45.5167C42.2682 44.1799 41.7538 42.8884 41.1 41.6667L33.5333 42.05L33.9167 34.5C32.7253 33.8351 31.4614 33.3095 30.15 32.9333L25.15 38.55L20 32.95Z" stroke="#2496D8" stroke-width="2.25" stroke-linecap="round" stroke-linejoin="round"/>
<path d="M25.0833 57.1333C28.7284 57.1333 31.6833 54.1784 31.6833 50.5333C31.6833 46.8882 28.7284 43.9333 25.0833 43.9333C21.4383 43.9333 18.4833 46.8882 18.4833 50.5333C18.4833 54.1784 21.4383 57.1333 25.0833 57.1333Z" stroke="black" stroke-width="2.25" stroke-linecap="round" stroke-linejoin="round"/>
<path d="M49.85 11.9C48.535 12.274 47.266 12.7939 46.0666 13.45L46.4666 21.0167L38.9 20.6333C38.2404 21.8252 37.7203 23.0891 37.35 24.4L42.95 29.4L37.35 34.4833C37.7205 35.8208 38.2404 37.1123 38.9 38.3333L46.4666 37.95L46.0666 45.5C47.2653 46.1619 48.5343 46.6874 49.85 47.0667L54.85 41.45L59.85 47.0667C61.1593 46.6845 62.4225 46.1591 63.6166 45.5L63.3333 37.9333L70.8833 38.3167C71.5424 37.1225 72.0678 35.8593 72.45 34.55L66.8333 29.4667L72.45 24.4667C72.0738 23.1552 71.5482 21.8914 70.8833 20.7L63.3333 21.0167L63.7166 13.45C62.5384 12.7984 61.292 12.2786 60 11.9L55 17.5167L49.85 11.9Z" stroke="black" stroke-width="2.25" stroke-linecap="round" stroke-linejoin="round"/>
<path d="M54.9167 36.0667C58.5617 36.0667 61.5167 33.1117 61.5167 29.4667C61.5167 25.8216 58.5617 22.8667 54.9167 22.8667C51.2716 22.8667 48.3167 25.8216 48.3167 29.4667C48.3167 33.1117 51.2716 36.0667 54.9167 36.0667Z" stroke="#2496D8" stroke-width="2.25" stroke-linecap="round" stroke-linejoin="round"/>
</svg>
