<svg width="49" height="48" viewBox="0 0 49 48" fill="none" xmlns="http://www.w3.org/2000/svg">
<g clip-path="url(#clip0_1573_2)">
<path d="M42.9209 5.75684C43.1827 5.6477 43.4706 5.61399 43.751 5.66211C44.0569 5.71458 44.3387 5.86097 44.5576 6.08008H44.5586C44.7779 6.29931 44.9231 6.58125 44.9756 6.88672C45.0236 7.16689 44.9904 7.45423 44.8818 7.71582L20.9375 31.6602L20.9268 31.6729C20.6809 31.9531 20.3382 32.1273 19.9688 32.165C19.5994 32.1271 19.2574 31.9529 19.0117 31.6729L19.001 31.6602L11.0557 23.7148C10.9473 23.4537 10.9139 23.1667 10.9619 22.8867C11.0145 22.581 11.1606 22.2995 11.3799 22.0801C11.5992 21.8607 11.881 21.7145 12.1865 21.6621C12.4666 21.6141 12.7541 21.6473 13.0156 21.7559L19.5352 28.2764L19.8877 28.6279L20.2412 28.2773L42.9209 5.75684Z" fill="#2496D8" stroke="white"/>
<path d="M21.5439 0.632812C24.6609 0.297513 27.8136 0.599737 30.8105 1.52051L30.835 1.52734L30.8594 1.53223C31.0643 1.57318 31.2589 1.65703 31.4297 1.77734C31.6004 1.89761 31.7439 2.05227 31.8516 2.23145C31.9324 2.36593 31.992 2.51188 32.0273 2.66406L32.0547 2.81738C32.0805 3.02504 32.063 3.23581 32.0029 3.43555C31.9427 3.63556 31.8411 3.82083 31.7051 3.97949C31.6032 4.09842 31.4835 4.20066 31.3506 4.28223L31.2129 4.35645C31.0242 4.44657 30.819 4.49677 30.6104 4.50293C30.4015 4.5091 30.1932 4.47135 30 4.39258L29.9775 4.38379L29.9551 4.37695L29.4561 4.2334C27.1194 3.59393 24.6891 3.36739 22.2744 3.56348L21.7578 3.61133C19.0328 3.89059 16.3921 4.718 13.9951 6.04395C11.6866 7.31745 9.64541 9.02466 7.9834 11.0713C6.27138 13.1578 4.99265 15.5655 4.22266 18.1523C3.50087 20.5774 3.2392 23.1145 3.4502 25.6328L3.49902 26.1367C3.77852 28.8611 4.60575 31.5012 5.93164 33.8975V33.8965C7.20566 36.2058 8.91326 38.2481 10.9609 39.9102V39.9092C13.0473 41.6208 15.4537 42.8991 18.04 43.6689C20.6267 44.4388 23.3412 44.6838 26.0244 44.3916C28.7493 44.1123 31.3891 43.285 33.7861 41.959C36.0955 40.6851 38.1374 38.9783 39.7998 36.9307L39.7988 36.9297C41.5099 34.8439 42.7889 32.4383 43.5586 29.8525C44.328 27.2677 44.5745 24.5553 44.2832 21.874C44.2632 21.6649 44.285 21.4534 44.3467 21.252L44.3457 21.251C44.3921 21.1002 44.4614 20.9581 44.5488 20.8281L44.6426 20.7021C44.7766 20.5398 44.9413 20.405 45.127 20.3066H45.1279C45.2671 20.2327 45.4161 20.1797 45.5703 20.1494L45.7266 20.127C45.8841 20.112 46.0422 20.1202 46.1963 20.1514L46.3486 20.1895C46.4994 20.2356 46.6429 20.3038 46.7734 20.3916L46.8994 20.4863C47.0209 20.5865 47.1269 20.7041 47.2139 20.835L47.2949 20.9707C47.3936 21.1565 47.4545 21.3605 47.4746 21.5703V21.5732C47.9501 26.1661 47.0627 30.7974 44.9219 34.8887C42.7809 38.9797 39.4811 42.3496 35.4365 44.5771L35.4277 44.583C32.6665 46.18 29.5985 47.1744 26.4258 47.502H23.9717C19.7714 47.4952 15.6494 46.3633 12.0352 44.2236C8.42085 42.0836 5.4464 39.0135 3.4209 35.334L3.41895 35.3311L3.13672 34.8135C1.76362 32.212 0.910618 29.3654 0.626953 26.4336L0.625977 26.4307L0.585938 26C0.205299 21.5515 1.09957 17.0832 3.16895 13.1201C5.30509 9.02928 8.59882 5.65811 12.6387 3.42676L12.6416 3.4248C15.3813 1.88655 18.4115 0.935371 21.5391 0.632812H21.5439Z" fill="#4D4D4E" stroke="white"/>
</g>
<defs>
<clipPath id="clip0_1573_2">
<rect width="49" height="48" fill="white"/>
</clipPath>
</defs>
</svg>
