<svg width="49" height="48" viewBox="0 0 49 48" fill="none" xmlns="http://www.w3.org/2000/svg">
<path d="M19.9691 32.6687C19.4544 32.6295 18.976 32.3901 18.6357 32.0021L10.6357 24.0021C10.4574 23.629 10.3993 23.2098 10.4692 22.8021C10.5392 22.3943 10.7338 22.0186 11.0262 21.7261C11.3187 21.4335 11.6946 21.2389 12.1022 21.169C12.5098 21.0991 12.9291 21.1573 13.3023 21.3354L19.8891 27.9221L42.6357 5.33552C43.0088 5.15728 43.4283 5.09912 43.8357 5.16907C44.2435 5.23901 44.6195 5.4336 44.9117 5.72605C45.2043 6.01851 45.3989 6.39443 45.4688 6.80205C45.5387 7.20971 45.4805 7.62899 45.3024 8.00219L21.3024 32.0021C20.9621 32.3901 20.4835 32.6295 19.9691 32.6687Z" fill="#2496D8"/>
<path d="M23.9691 48.0021C19.6797 47.9952 15.4704 46.8389 11.7795 44.6536C8.08856 42.468 5.05083 39.3333 2.98237 35.5755C1.41005 32.7755 0.438293 29.6786 0.129039 26.4821C-0.359014 21.7944 0.543999 17.0667 2.72541 12.8888C4.90685 8.71086 8.27013 5.26771 12.3957 2.98886C15.1958 1.41654 18.2926 0.444782 21.4891 0.135528C24.6733 -0.207032 27.8941 0.101448 30.9557 1.04219C31.2288 1.09678 31.4877 1.20785 31.7155 1.3683C31.9432 1.52873 32.1349 1.73499 32.2784 1.97387C32.4219 2.21273 32.5139 2.47894 32.5485 2.75542C32.5829 3.03187 32.5595 3.31252 32.4792 3.57934C32.3989 3.84617 32.2637 4.09329 32.0824 4.30484C31.9011 4.51641 31.6776 4.68777 31.4264 4.8079C31.1749 4.92806 30.9011 4.99436 30.6227 5.00254C30.3443 5.01076 30.0669 4.96068 29.8091 4.85553C27.2187 4.07665 24.4989 3.82278 21.8091 4.10886C19.1504 4.3811 16.5742 5.18838 14.2357 6.48219C11.9827 7.72513 9.99075 9.39113 8.36904 11.3889C6.69933 13.424 5.45248 15.7717 4.70152 18.2948C3.95059 20.8179 3.71061 23.4653 3.99571 26.0821C4.26795 28.7408 5.07525 31.317 6.36904 33.6554C7.61197 35.9085 9.27797 37.9005 11.2757 39.5221C13.3108 41.192 15.6586 42.4386 18.1816 43.1896C20.7045 43.9405 23.352 44.1805 25.9691 43.8954C28.6277 43.6232 31.2037 42.816 33.5424 41.5221C35.7955 40.2792 37.7872 38.6133 39.4091 36.6154C41.0787 34.5805 42.3256 32.2325 43.0765 29.7096C43.8275 27.1866 44.0675 24.5392 43.7824 21.9221C43.756 21.6472 43.7843 21.3699 43.8651 21.1059C43.9461 20.8419 44.0781 20.5962 44.2541 20.3834C44.4299 20.1704 44.6459 19.9941 44.8899 19.8648C45.1339 19.7352 45.4008 19.6552 45.6757 19.6288C45.9507 19.6026 46.228 19.6306 46.492 19.7117C46.756 19.7925 47.0016 19.9248 47.2144 20.1005C47.4275 20.2762 47.6037 20.4925 47.7331 20.7362C47.8627 20.9802 47.9427 21.2472 47.9691 21.5221C48.4547 26.2128 47.5477 30.9424 45.3613 35.1208C43.1749 39.2989 39.8061 42.7405 35.6757 45.0154C32.8459 46.6522 29.7011 47.6701 26.4491 48.0021C25.6224 48.0021 24.7691 48.0021 23.9691 48.0021Z" fill="#4D4D4E"/>
</svg>
