<svg width="60" height="60" viewBox="0 0 60 60" fill="none" xmlns="http://www.w3.org/2000/svg">
<g clip-path="url(#clip0_2045_57)">
<path d="M51.3869 51.3382L51.3872 51.3379C52.5738 50.1515 52.5738 48.2206 51.3872 47.0339C50.8125 46.4594 50.0479 46.1424 49.2349 46.1424C48.4223 46.1424 47.6577 46.4594 47.0827 47.0345C45.8965 48.2206 45.8965 50.1515 47.083 51.338C48.2699 52.5243 50.2005 52.5243 51.3869 51.3382ZM48.0295 50.3914C47.7076 50.0696 47.5303 49.6415 47.5303 49.1859C47.5303 48.7306 47.7076 48.3022 48.0295 47.9804C48.3517 47.6585 48.7799 47.4811 49.2353 47.4811C49.6906 47.4811 50.1186 47.6585 50.4407 47.9804C51.1053 48.6452 51.1053 49.7266 50.4404 50.3914C49.7757 51.0563 48.6944 51.056 48.0295 50.3914Z" fill="#333333"/>
<path d="M56.6978 13.4245C56.6985 13.4236 56.6994 13.4231 56.7001 13.4223C56.7015 13.4209 56.7028 13.4193 56.7043 13.4179L56.8878 13.2344L56.8832 13.2297C59.611 10.3026 59.5511 5.70261 56.6996 2.85121C55.2878 1.43931 53.4108 0.661713 51.4141 0.661713C49.5065 0.661713 47.709 1.37301 46.321 2.66771L46.3166 2.66325L46.1329 2.84681C46.1314 2.84835 46.1299 2.84965 46.1284 2.85118C46.1277 2.85188 46.1271 2.85268 46.1264 2.85348L2.21237 46.7673L2.22947 46.7844C1.984 46.9427 1.80617 47.2027 1.76347 47.5146L0.319271 58.0634C0.275305 58.385 0.384271 58.7083 0.613638 58.9378C0.809471 59.1335 1.07387 59.2414 1.3471 59.2414C1.39384 59.2414 1.44087 59.2382 1.4879 59.2319L12.0363 57.7873C12.3484 57.7447 12.6084 57.5667 12.7667 57.3213L12.7837 57.3384L56.6978 13.4245ZM51.4141 2.73645C52.8565 2.73645 54.2126 3.29818 55.2325 4.31818C57.0872 6.17278 57.3083 9.05218 55.8957 11.1509L48.3991 3.65465C49.2827 3.05745 50.3239 2.73645 51.4141 2.73645ZM46.3166 5.59728L53.9537 13.2343L12.7837 54.4043L9.91057 51.5313L42.958 18.4843L40.9796 16.5062L7.93264 49.5535L5.14647 46.7673L46.3166 5.59728ZM2.56014 56.991L3.74947 48.3042L11.2466 55.8014L2.56014 56.991Z" fill="#2496D9"/>
<path d="M16.898 26.816L18.791 24.923L3.6428 9.77466L9.82387 3.59342L12.7547 6.52449L10.6283 8.65059L12.307 10.3292L14.4334 8.20326L16.1421 9.91186L14.0157 12.0381L15.6945 13.7166L17.8211 11.5906L19.5296 13.2995L16.3838 16.4446L18.063 18.1234L21.2084 14.978L23.2918 17.0613L21.1654 19.188L22.8442 20.8664L24.9706 18.74L24.972 18.7416L26.865 16.8486L10.7702 0.754058C10.2475 0.231191 9.40013 0.231191 8.8774 0.754058L0.803399 8.82816C0.280499 9.35093 0.280499 10.1984 0.803399 10.7211L16.898 26.816Z" fill="#333333"/>
<path d="M59.2981 49.2762C59.2739 49.2519 59.2489 49.2288 59.2234 49.2067L42.3807 32.3643L37.3421 37.4029L39.0174 39.0783L42.1631 35.9326L56.4561 50.2253L50.2747 56.4064L34.3065 40.4384L32.4136 42.3316L49.3281 59.2459C49.8509 59.7689 50.6982 59.7689 51.2211 59.2459L59.2955 51.1721C59.2962 51.171 59.2971 51.1704 59.2982 51.1692C59.821 50.6467 59.821 49.799 59.2981 49.2762Z" fill="#333333"/>
</g>
<defs>
<clipPath id="clip0_2045_57">
<rect width="60" height="60" fill="white"/>
</clipPath>
</defs>
</svg>
