<svg width="60" height="60" viewBox="0 0 60 60" fill="none" xmlns="http://www.w3.org/2000/svg">
<path d="M27.06 25.8C27.42 25.8 27.66 25.56 27.66 25.2C27.66 23.88 26.58 22.8 25.26 22.8C23.94 22.8 22.86 23.88 22.86 25.2C22.86 25.56 23.1 25.8 23.46 25.8C23.82 25.8 24.06 25.56 24.06 25.2C24.06 24.54 24.6 24 25.26 24C25.92 24 26.46 24.54 26.46 25.2C26.46 25.56 26.76 25.8 27.06 25.8Z" fill="black"/>
<path d="M33.6 30.24C33.72 29.94 33.6 29.58 33.36 29.46C33.06 29.34 32.7 29.46 32.58 29.7C32.1 30.6 31.2 31.14 30.12 31.14C29.04 31.14 28.08 30.6 27.66 29.7C27.54 29.4 27.18 29.28 26.88 29.46C26.58 29.58 26.46 29.94 26.64 30.24C27.3 31.56 28.68 32.4 30.18 32.4C31.68 32.4 32.94 31.56 33.6 30.24Z" fill="black"/>
<path d="M33.06 25.8C33.42 25.8 33.66 25.56 33.66 25.2C33.66 24.54 34.2 24 34.86 24C35.52 24 36.06 24.54 36.06 25.2C36.06 25.56 36.3 25.8 36.66 25.8C37.02 25.8 37.26 25.56 37.26 25.2C37.26 23.88 36.18 22.8 34.86 22.8C33.54 22.8 32.46 23.88 32.46 25.2C32.46 25.56 32.76 25.8 33.06 25.8Z" fill="black"/>
<path d="M53.64 48.3C53.1 45.24 50.82 42.84 47.76 42.18L34.8 39.18V36C38.04 34.26 40.2 30.9 40.2 27H40.8C42.48 27 43.8 25.68 43.8 24C43.8 23.22 43.5 22.5 43.02 21.96C43.8 21.6 44.4 20.76 44.4 19.8C44.4 18.66 43.62 17.76 42.6 17.46V15.66C42.6 12.48 41.28 9.47999 39 7.31999V5.39999C39 4.37999 38.22 3.59999 37.2 3.59999C36.36 3.59999 35.64 4.19999 35.46 5.03999C34.5 4.67999 33.48 4.37999 32.4 4.31999V4.19999C32.4 3.17999 31.62 2.39999 30.6 2.39999H29.4C28.38 2.39999 27.6 3.17999 27.6 4.19999V4.31999C26.58 4.43999 25.56 4.67999 24.54 5.09999C24.42 4.25999 23.7 3.59999 22.8 3.59999C21.78 3.59999 21 4.37999 21 5.39999V7.31999C18.72 9.47999 17.4 12.48 17.4 15.66V17.46C16.38 17.7 15.6 18.66 15.6 19.8C15.6 20.76 16.2 21.6 16.98 21.96C16.5 22.5 16.2 23.22 16.2 24C16.2 25.68 17.52 27 19.2 27H19.8C19.8 30.9 22.02 34.26 25.2 36V39.12L12.24 42.12C9.24 42.84 6.96 45.24 6.36 48.24L4.8 56.88C4.74 57.06 4.8 57.24 4.92 57.36C5.04 57.54 5.22 57.6 5.4 57.6H16.8H26.4H30H33.6H43.2H54.6C54.78 57.6 54.96 57.54 55.08 57.36C55.2 57.24 55.26 57.06 55.2 56.88L53.64 48.3ZM43.2 54H33.6C33.24 54 33 54.24 33 54.6V56.4H30.6V52.2C35.94 52.08 41.4 50.16 41.4 46.2V41.88L46.2 43.02V56.4H43.8V54.6C43.8 54.24 43.56 54 43.2 54ZM26.4 54H16.8C16.44 54 16.2 54.24 16.2 54.6V56.4H13.8V43.02L18.6 41.88V46.2C18.6 48.12 19.92 49.74 22.32 50.82C24.24 51.66 26.7 52.14 29.4 52.2V56.4H27V54.6C27 54.24 26.76 54 26.4 54ZM26.82 41.94C27.66 42.36 28.8 42.6 30 42.6C32.04 42.6 34.2 41.88 34.68 40.32L36.6 40.8C36.6 43.14 33.3 44.4 30 44.4C26.7 44.4 23.4 43.14 23.4 40.8L25.32 40.38C25.56 40.98 26.04 41.52 26.82 41.94ZM24.78 44.46C26.16 45.18 28.02 45.6 30 45.6C33.66 45.6 37.56 44.16 37.8 41.04L40.2 41.58V46.2C40.2 49.38 35.04 51 30 51C24.96 51 19.8 49.38 19.8 46.2V41.64L22.2 41.1C22.32 42.48 23.16 43.68 24.78 44.46ZM40.8 25.8H40.2V22.2H40.8C41.82 22.2 42.6 22.98 42.6 24C42.6 25.02 41.82 25.8 40.8 25.8ZM41.4 15.66V17.4H37.8V13.8H38.4C38.76 13.8 39 13.56 39 13.2V9.11999C40.56 10.92 41.4 13.26 41.4 15.66ZM37.2 4.79999C37.56 4.79999 37.8 5.03999 37.8 5.39999V12.6H36.6V5.39999C36.6 5.03999 36.84 4.79999 37.2 4.79999ZM30 10.2C31.32 10.2 32.4 11.28 32.4 12.6C32.4 13.92 31.32 15 30 15C28.68 15 27.6 13.92 27.6 12.6C27.6 11.28 28.68 10.2 30 10.2ZM29.4 3.59999H30.6C30.96 3.59999 31.2 3.83999 31.2 4.19999V9.23999C30.84 9.11999 30.42 8.99999 30 8.99999C29.58 8.99999 29.16 9.05999 28.8 9.23999V4.19999C28.8 3.83999 29.04 3.59999 29.4 3.59999ZM27.6 9.89999C26.88 10.56 26.4 11.52 26.4 12.6C26.4 14.58 28.02 16.2 30 16.2C31.98 16.2 33.6 14.58 33.6 12.6C33.6 11.52 33.12 10.56 32.4 9.89999V5.45999C33.42 5.57999 34.44 5.87999 35.4 6.29999V13.2C35.4 13.56 35.64 13.8 36 13.8H36.6V17.4H23.4V13.8H24C24.36 13.8 24.6 13.56 24.6 13.2V6.35999C25.56 5.93999 26.58 5.63999 27.6 5.45999V9.89999ZM22.2 5.39999C22.2 5.03999 22.44 4.79999 22.8 4.79999C23.16 4.79999 23.4 5.03999 23.4 5.39999V12.6H22.2V5.39999ZM18.6 15.66C18.6 13.26 19.44 10.92 21 9.05999V13.2C21 13.56 21.24 13.8 21.6 13.8H22.2V17.4H18.6V15.66ZM18 18.6H42C42.66 18.6 43.2 19.14 43.2 19.8C43.2 20.46 42.66 21 42 21H40.8H39.6H20.4H19.2H18C17.34 21 16.8 20.46 16.8 19.8C16.8 19.14 17.34 18.6 18 18.6ZM19.2 25.8C18.18 25.8 17.4 25.02 17.4 24C17.4 22.98 18.18 22.2 19.2 22.2H19.8V25.8H19.2ZM21 27V26.4V22.2H39V26.4V27C39 31.98 34.98 36 30 36C25.02 36 21 31.98 21 27ZM30 37.2C31.26 37.2 32.46 36.96 33.6 36.54V39.6C33.6 40.74 31.74 41.4 30 41.4C28.26 41.4 26.4 40.74 26.4 39.6V36.54C27.54 36.96 28.74 37.2 30 37.2ZM7.56 48.54C8.04 45.96 9.96 43.92 12.48 43.32H12.6V56.4H6.12L7.56 48.54ZM17.4 56.4V55.2H25.8V56.4H17.4ZM34.2 56.4V55.2H42.6V56.4H34.2ZM47.4 56.4V43.32H47.52C50.04 43.92 52.02 45.96 52.44 48.54L53.88 56.4H47.4Z" fill="black"/>
</svg>
